<svg xmlns="http://www.w3.org/2000/svg" width="426.883" height="517.182" viewBox="0 0 426.883 517.182">
  <g id="Group_2" data-name="Group 2" transform="translate(-1193.036 -245.882)">
    <path id="Path_1" data-name="Path 1" d="M1544.42,1994.066c13.511-28.095,96.228-346.945,64.175-359.8s-62.13,131.747-62.13,131.747l-13.855-7.125s39.544-195.623,6.042-205.127-63.393,184.67-63.393,184.67l-21.382-4.071s4.47-216.437-37.91-217.471-18.035,217.471-18.035,217.471h-17.793s-46.065-180-95.63-154.8,62.4,198,36.277,221.163-97.4-64.421-125.477-30.311,44.575,59.619,89.2,96.516,67.531,110.711,73.753,127.136S1463.277,2075.208,1544.42,1994.066Z" transform="translate(4 -1271)" fill="#fff"/>
    <path id="Path_2" data-name="Path 2" d="M1334.188,1782.372s123.913-1.129,133.33,204.211" transform="translate(17 -1257)" fill="none" stroke="#000" stroke-width="6"/>
    <path id="Path_3" data-name="Path 3" d="M1430.777,1744.422s38.145,61.089,137.072,68.206" transform="translate(122.136 -1331.031) rotate(3)" fill="none" stroke="#000" stroke-width="7"/>
    <path id="Path_4" data-name="Path 4" d="M1574.326,1860.382s-144.715-44.114-222.031-85.557" transform="translate(11 -1269)" fill="none" stroke="#000" stroke-width="7"/>
  </g>
</svg>
